<svg width="92" height="16" viewBox="0 0 92 16" fill="none" xmlns="http://www.w3.org/2000/svg">
    <path d="M14.731 6.01509L10.1674 5.35196L8.1274 1.21686C8.07168 1.10364 7.98001 1.01199 7.86678 0.956283C7.58279 0.81611 7.23769 0.932921 7.0957 1.21686L5.05566 5.35196L0.492097 6.01509C0.36628 6.03306 0.251247 6.09236 0.163175 6.18221C0.0567005 6.29163 -0.00197157 6.43884 5.05891e-05 6.59149C0.00207275 6.74413 0.0646237 6.88974 0.173959 6.9963L3.47576 10.2149L2.69569 14.7597C2.6774 14.8654 2.6891 14.9742 2.72947 15.0736C2.76984 15.173 2.83726 15.2591 2.92408 15.3222C3.01091 15.3852 3.11367 15.4227 3.22071 15.4303C3.32775 15.4379 3.43479 15.4154 3.52968 15.3653L7.61155 13.2196L11.6934 15.3653C11.8049 15.4246 11.9343 15.4444 12.0583 15.4228C12.371 15.3689 12.5813 15.0724 12.5274 14.7597L11.7473 10.2149L15.0491 6.9963C15.139 6.90824 15.1983 6.79322 15.2163 6.66743C15.2648 6.35294 15.0455 6.06181 14.731 6.01509Z" fill="#FFD23F"/>
    <path d="M33.9253 6.01509L29.3617 5.35196L27.3217 1.21686C27.266 1.10364 27.1743 1.01199 27.0611 0.956283C26.7771 0.81611 26.432 0.932921 26.29 1.21686L24.25 5.35196L19.6864 6.01509C19.5606 6.03306 19.4456 6.09236 19.3575 6.18221C19.251 6.29163 19.1924 6.43884 19.1944 6.59149C19.1964 6.74413 19.259 6.88974 19.3683 6.9963L22.6701 10.2149L21.89 14.7597C21.8717 14.8654 21.8834 14.9742 21.9238 15.0736C21.9642 15.173 22.0316 15.2591 22.1184 15.3222C22.2052 15.3852 22.308 15.4227 22.415 15.4303C22.5221 15.4379 22.6291 15.4154 22.724 15.3653L26.8059 13.2196L30.8877 15.3653C30.9991 15.4246 31.1286 15.4444 31.2526 15.4228C31.5653 15.3689 31.7756 15.0724 31.7217 14.7597L30.9416 10.2149L34.2434 6.9963C34.3333 6.90824 34.3926 6.79322 34.4106 6.66743C34.4591 6.35294 34.2398 6.06181 33.9253 6.01509Z" fill="#FFD23F"/>
    <path d="M53.1197 6.01509L48.5561 5.35196L46.5161 1.21686C46.4604 1.10364 46.3687 1.01199 46.2554 0.956283C45.9715 0.81611 45.6264 0.932921 45.4844 1.21686L43.4443 5.35196L38.8808 6.01509C38.755 6.03306 38.6399 6.09236 38.5518 6.18221C38.4454 6.29163 38.3867 6.43884 38.3887 6.59149C38.3907 6.74413 38.4533 6.88974 38.5626 6.9963L41.8644 10.2149L41.0844 14.7597C41.0661 14.8654 41.0778 14.9742 41.1181 15.0736C41.1585 15.173 41.2259 15.2591 41.3128 15.3222C41.3996 15.3852 41.5023 15.4227 41.6094 15.4303C41.7164 15.4379 41.8235 15.4154 41.9184 15.3653L46.0002 13.2196L50.0821 15.3653C50.1935 15.4246 50.3229 15.4444 50.447 15.4228C50.7597 15.3689 50.97 15.0724 50.9161 14.7597L50.136 10.2149L53.4378 6.9963C53.5277 6.90824 53.587 6.79322 53.605 6.66743C53.6535 6.35294 53.4342 6.06181 53.1197 6.01509Z" fill="#FFD23F"/>
    <path d="M72.314 6.01509L67.7504 5.35196L65.7104 1.21686C65.6547 1.10364 65.563 1.01199 65.4498 0.956283C65.1658 0.81611 64.8207 0.932921 64.6787 1.21686L62.6387 5.35196L58.0751 6.01509C57.9493 6.03306 57.8343 6.09236 57.7462 6.18221C57.6397 6.29163 57.581 6.43884 57.5831 6.59149C57.5851 6.74413 57.6476 6.88974 57.757 6.9963L61.0588 10.2149L60.2787 14.7597C60.2604 14.8654 60.2721 14.9742 60.3125 15.0736C60.3528 15.173 60.4203 15.2591 60.5071 15.3222C60.5939 15.3852 60.6967 15.4227 60.8037 15.4303C60.9108 15.4379 61.0178 15.4154 61.1127 15.3653L65.1946 13.2196L69.2764 15.3653C69.3879 15.4246 69.5173 15.4444 69.6413 15.4228C69.954 15.3689 70.1643 15.0724 70.1104 14.7597L69.3303 10.2149L72.6321 6.9963C72.722 6.90824 72.7813 6.79322 72.7993 6.66743C72.8478 6.35294 72.6285 6.06181 72.314 6.01509Z" fill="#FFD23F"/>
    <path d="M91.5083 6.01509L86.9447 5.35196L84.9047 1.21686C84.849 1.10364 84.7573 1.01199 84.6441 0.956283C84.3601 0.81611 84.015 0.932921 83.873 1.21686L81.833 5.35196L77.2694 6.01509C77.1436 6.03306 77.0286 6.09236 76.9405 6.18221C76.834 6.29163 76.7754 6.43884 76.7774 6.59149C76.7794 6.74413 76.842 6.88974 76.9513 6.9963L80.2531 10.2149L79.473 14.7597C79.4547 14.8654 79.4664 14.9742 79.5068 15.0736C79.5472 15.173 79.6146 15.2591 79.7014 15.3222C79.7882 15.3852 79.891 15.4227 79.998 15.4303C80.1051 15.4379 80.2121 15.4154 80.307 15.3653L84.3889 13.2196L88.4707 15.3653C88.5821 15.4246 88.7116 15.4444 88.8356 15.4228C89.1483 15.3689 89.3586 15.0724 89.3047 14.7597L88.5246 10.2149L91.8264 6.9963C91.9163 6.90824 91.9756 6.79322 91.9936 6.66743C92.0421 6.35294 91.8228 6.06181 91.5083 6.01509Z" fill="#FFD23F"/>
</svg>

