<svg width="52" height="40" viewBox="0 0 52 40" fill="none" xmlns="http://www.w3.org/2000/svg">
    <rect width="48" height="40" rx="5" fill="#1F2547"/>
    <path d="M6.5 8C7.32843 8 8 7.32843 8 6.5C8 5.67157 7.32843 5 6.5 5C5.67157 5 5 5.67157 5 6.5C5 7.32843 5.67157 8 6.5 8Z" fill="#FFFDFA"/>
    <path d="M11.5 8C12.3284 8 13 7.32843 13 6.5C13 5.67157 12.3284 5 11.5 5C10.6716 5 10 5.67157 10 6.5C10 7.32843 10.6716 8 11.5 8Z" fill="#FFFDFA"/>
    <path d="M16.5 8C17.3284 8 18 7.32843 18 6.5C18 5.67157 17.3284 5 16.5 5C15.6716 5 15 5.67157 15 6.5C15 7.32843 15.6716 8 16.5 8Z" fill="#FFFDFA"/>
    <path d="M27 12.8237C27 11.9949 27.3292 11.2001 27.9153 10.614C28.5013 10.028 29.2962 9.69873 30.125 9.69873H48.875C49.7038 9.69873 50.4987 10.028 51.0847 10.614C51.6708 11.2001 52 11.9949 52 12.8237V25.3237C52 26.1525 51.6708 26.9474 51.0847 27.5334C50.4987 28.1195 49.7038 28.4487 48.875 28.4487H33.8969C33.4825 28.4488 33.0851 28.6135 32.7922 28.9065L28.3344 33.3644C28.2252 33.4738 28.086 33.5484 27.9344 33.5787C27.7828 33.609 27.6257 33.5937 27.4828 33.5346C27.3399 33.4756 27.2178 33.3755 27.1319 33.247C27.0459 33.1185 27 32.9674 27 32.8128V12.8237ZM32.4688 14.3862C32.2615 14.3862 32.0628 14.4685 31.9163 14.6151C31.7698 14.7616 31.6875 14.9603 31.6875 15.1675C31.6875 15.3747 31.7698 15.5734 31.9163 15.7199C32.0628 15.8664 32.2615 15.9487 32.4688 15.9487H46.5312C46.7385 15.9487 46.9372 15.8664 47.0837 15.7199C47.2302 15.5734 47.3125 15.3747 47.3125 15.1675C47.3125 14.9603 47.2302 14.7616 47.0837 14.6151C46.9372 14.4685 46.7385 14.3862 46.5312 14.3862H32.4688ZM32.4688 18.2925C32.2615 18.2925 32.0628 18.3748 31.9163 18.5213C31.7698 18.6678 31.6875 18.8665 31.6875 19.0737C31.6875 19.2809 31.7698 19.4796 31.9163 19.6262C32.0628 19.7727 32.2615 19.855 32.4688 19.855H46.5312C46.7385 19.855 46.9372 19.7727 47.0837 19.6262C47.2302 19.4796 47.3125 19.2809 47.3125 19.0737C47.3125 18.8665 47.2302 18.6678 47.0837 18.5213C46.9372 18.3748 46.7385 18.2925 46.5312 18.2925H32.4688ZM32.4688 22.1987C32.2615 22.1987 32.0628 22.281 31.9163 22.4276C31.7698 22.5741 31.6875 22.7728 31.6875 22.98C31.6875 23.1872 31.7698 23.3859 31.9163 23.5324C32.0628 23.6789 32.2615 23.7612 32.4688 23.7612H40.2812C40.4885 23.7612 40.6872 23.6789 40.8337 23.5324C40.9802 23.3859 41.0625 23.1872 41.0625 22.98C41.0625 22.7728 40.9802 22.5741 40.8337 22.4276C40.6872 22.281 40.4885 22.1987 40.2812 22.1987H32.4688Z" fill="#F77C64"/>
    <path d="M4.81765 37.0094L7.98968 37.8593C9.15857 38.1725 9.77512 36.5276 8.68834 35.9953L6.94667 35.1423C6.50897 34.928 6.1646 34.5611 5.97828 34.1108L5.04312 31.8504C4.60848 30.7999 3.03683 31.1738 3.12188 32.3075L3.3409 35.2271C3.40447 36.0746 3.99673 36.7894 4.81765 37.0094Z" fill="#FFFDFA"/>
</svg>
