<svg width="16" height="18" viewBox="0 0 16 18" fill="none" xmlns="http://www.w3.org/2000/svg">
    <g opacity="0.3">
        <path d="M5.33333 8V9.77778H3.55556V8H5.33333ZM8.88889 8V9.77778H7.11111V8H8.88889ZM12.4444 8V9.77778H10.6667V8H12.4444ZM14.2222 1.77778C14.6937 1.77778 15.1459 1.96508 15.4793 2.29848C15.8127 2.63188 16 3.08406 16 3.55556V16C16 16.4715 15.8127 16.9237 15.4793 17.2571C15.1459 17.5905 14.6937 17.7778 14.2222 17.7778H1.77778C1.30628 17.7778 0.854097 17.5905 0.520699 17.2571C0.187301 16.9237 0 16.4715 0 16V3.55556C0 3.08406 0.187301 2.63188 0.520699 2.29848C0.854097 1.96508 1.30628 1.77778 1.77778 1.77778H2.66667V0H4.44444V1.77778H11.5556V0H13.3333V1.77778H14.2222ZM14.2222 16V6.22222H1.77778V16H14.2222ZM5.33333 11.5556V13.3333H3.55556V11.5556H5.33333ZM8.88889 11.5556V13.3333H7.11111V11.5556H8.88889ZM12.4444 11.5556V13.3333H10.6667V11.5556H12.4444Z" fill="#606274"/>
    </g>
</svg>
