<svg width="48" height="38" viewBox="0 0 48 38" fill="none" xmlns="http://www.w3.org/2000/svg">
    <rect width="48" height="30" rx="5" fill="#1F2547"/>
    <circle cx="8" cy="22" r="3" fill="#F5C387"/>
    <circle cx="12" cy="22" r="3" fill="#F5C387"/>
    <rect y="5" width="48" height="4" fill="#F5C387"/>
    <path d="M21.0397 17.7445C21.1079 16.4059 22.1701 15.3891 23.493 15.1736C24.6444 14.986 26.0314 14.7216 27.1257 14.3963C28.5406 13.9757 30.4447 13.1624 31.6963 12.6008C32.525 12.229 33.475 12.229 34.3037 12.6008C35.5553 13.1624 37.4594 13.9757 38.8743 14.3963C39.9686 14.7216 41.3556 14.986 42.507 15.1736C43.8299 15.3891 44.8921 16.4059 44.9603 17.7445C45.2104 22.6545 44.588 34.17 33.8168 37.7495C33.2921 37.9239 32.7079 37.9239 32.1832 37.7495C21.412 34.17 20.7896 22.6545 21.0397 17.7445Z" fill="#F5C387"/>
    <path fill-rule="evenodd" clip-rule="evenodd" d="M25.8564 29.2021L28.9025 16.7446C29.9565 16.3917 31.2633 15.8133 32.1137 15.4201C32.2251 15.3686 32.3398 15.3274 32.4566 15.2963L28.2746 32.3997C27.2468 31.4521 26.4585 30.3577 25.8564 29.2021ZM31.0218 34.2517C30.5191 34.0112 30.0515 33.7442 29.6167 33.4544L34.0122 15.4778C34.4263 15.668 34.9314 15.8939 35.4566 16.1144L31.0218 34.2517Z" fill="#FFFDFA"/>
    <path d="M24.0426 19.1843C24.0959 18.2915 24.8013 17.6151 25.6841 17.4718C26.5807 17.3263 27.7138 17.1117 28.5943 16.8433C29.6904 16.5091 31.1779 15.8526 32.1133 15.4201C32.6756 15.1602 33.3244 15.1602 33.8867 15.4201C34.8221 15.8526 36.3096 16.5091 37.4057 16.8433C38.2862 17.1117 39.4193 17.3263 40.3159 17.4718C41.1987 17.6151 41.9041 18.2915 41.9574 19.1843C42.1747 22.8232 41.8619 32.0353 33.5583 34.8257C33.2002 34.946 32.7998 34.946 32.4417 34.8257C24.1381 32.0353 23.8253 22.8232 24.0426 19.1843Z" stroke="#1F2547" stroke-width="2"/>
</svg>
