<svg width="38" height="48" viewBox="0 0 38 48" fill="none" xmlns="http://www.w3.org/2000/svg">
    <path d="M0 5C0 2.23858 2.23858 0 5 0H28L38 10V43C38 45.7614 35.7614 48 33 48H5C2.23858 48 0 45.7614 0 43V5Z" fill="#1F2547"/>
    <path d="M38 10H31C29.3431 10 28 8.65685 28 7V0L38 10Z" fill="#80CCB0"/>
    <path d="M23.111 14.3271C23.3164 14.1198 23.5956 14.0022 23.8874 14C24.1793 13.9979 24.4602 14.1114 24.6686 14.3156C24.8771 14.5199 24.9962 14.7984 24.9999 15.0903C25.0036 15.3821 24.8917 15.6636 24.6885 15.8732L18.8103 23.2218C18.7093 23.3305 18.5874 23.4178 18.452 23.4784C18.3165 23.5389 18.1702 23.5716 18.0219 23.5744C17.8735 23.5772 17.7261 23.5501 17.5884 23.4946C17.4508 23.4392 17.3257 23.3566 17.2207 23.2518L13.3233 19.3559C13.1162 19.1487 12.9999 18.8677 13 18.5747C13.0001 18.2818 13.1165 18.0008 13.3237 17.7937C13.5309 17.5866 13.8119 17.4703 14.1049 17.4704C14.3979 17.4705 14.6788 17.5869 14.8859 17.7941L17.9682 20.8772L23.0818 14.3616C23.091 14.3498 23.1011 14.3385 23.1117 14.3279L23.111 14.3271Z" fill="#80CCB0"/>
    <path d="M23.111 27.3271C23.3164 27.1198 23.5956 27.0022 23.8874 27C24.1793 26.9979 24.4602 27.1114 24.6686 27.3156C24.8771 27.5199 24.9962 27.7984 24.9999 28.0903C25.0036 28.3821 24.8917 28.6636 24.6885 28.8732L18.8103 36.2218C18.7093 36.3305 18.5874 36.4178 18.452 36.4784C18.3165 36.5389 18.1702 36.5716 18.0219 36.5744C17.8735 36.5772 17.7261 36.5501 17.5884 36.4946C17.4508 36.4392 17.3257 36.3566 17.2207 36.2518L13.3233 32.3559C13.1162 32.1487 12.9999 31.8677 13 31.5747C13.0001 31.2818 13.1165 31.0008 13.3237 30.7937C13.5309 30.5866 13.8119 30.4703 14.1049 30.4704C14.3979 30.4705 14.6788 30.5869 14.8859 30.7941L17.9682 33.8772L23.0818 27.3616C23.091 27.3498 23.1011 27.3385 23.1117 27.3279L23.111 27.3271Z" fill="#80CCB0"/>
    <path d="M3 42.2844V39.0004C3 37.7903 4.74847 37.6205 4.98131 38.808L5.35447 40.7111C5.44825 41.1894 5.71344 41.617 6.10023 41.9135L8.04151 43.4018C8.94376 44.0935 8.1758 45.5148 7.10273 45.1393L4.3393 44.1721C3.53713 43.8913 3 43.1342 3 42.2844Z" fill="#FFFDFA"/>
</svg>
