<svg width="26" height="19" viewBox="0 0 26 19" fill="none" xmlns="http://www.w3.org/2000/svg">
    <path d="M7.91597 9.2353C10.548 9.2353 12.5336 7.24971 12.5336 4.61765C12.5336 1.98559 10.548 0 7.91597 0C5.28391 0 3.29832 1.98559 3.29832 4.61765C3.29832 7.24971 5.28391 9.2353 7.91597 9.2353ZM9.2353 10.486H6.59664C2.95925 10.486 0 13.4453 0 17.0827V18.402H15.8319V17.0827C15.8319 13.4453 12.8727 10.486 9.2353 10.486ZM24.1345 4.27594L21.1092 7.30116L18.084 4.27594L16.2185 6.14147L19.2424 9.16537L16.2172 12.1906L18.0827 14.0561L21.1079 11.0309L24.1345 14.0574L26 12.1919L22.9748 9.16669L26 6.14147L24.1345 4.27594Z"
          fill="#606274"/>
</svg>
