<svg width="174" height="160" viewBox="0 0 174 160" fill="none" xmlns="http://www.w3.org/2000/svg">
    <path opacity="0.4" fill-rule="evenodd" clip-rule="evenodd" d="M95.6667 0.77925C66.9877 -2.63109 35.9161 5.31455 16.5902 21.4373C-2.02102 36.9637 -0.350565 59.4519 0.414436 80.2439C1.14983 100.231 2.92277 120.985 20.8022 135.918C39.5737 151.597 67.5368 161.552 95.6668 159.801C122.224 158.148 143.251 143.324 158.965 127.317C172.248 113.787 174.892 96.975 173.768 80.2439C172.714 64.5586 165.402 50.3304 152.941 37.6513C137.451 21.8908 121.588 3.86162 95.6667 0.77925Z" fill="#EFEEED"/>
    <rect x="43.2363" y="45" width="78.6626" height="65.5522" rx="5" fill="#E6E5E5"/>
    <path d="M53.8879 58.1107C55.2455 58.1107 56.3461 57.0102 56.3461 55.6525C56.3461 54.2949 55.2455 53.1943 53.8879 53.1943C52.5303 53.1943 51.4297 54.2949 51.4297 55.6525C51.4297 57.0102 52.5303 58.1107 53.8879 58.1107Z" fill="#FFFDFA"/>
    <path d="M62.0832 58.1107C63.4408 58.1107 64.5414 57.0102 64.5414 55.6525C64.5414 54.2949 63.4408 53.1943 62.0832 53.1943C60.7256 53.1943 59.625 54.2949 59.625 55.6525C59.625 57.0102 60.7256 58.1107 62.0832 58.1107Z" fill="#FFFDFA"/>
    <path d="M70.2766 58.1107C71.6342 58.1107 72.7348 57.0102 72.7348 55.6525C72.7348 54.2949 71.6342 53.1943 70.2766 53.1943C68.9189 53.1943 67.8184 54.2949 67.8184 55.6525C67.8184 57.0102 68.9189 58.1107 70.2766 58.1107Z" fill="#FFFDFA"/>
    <path fill-rule="evenodd" clip-rule="evenodd" d="M85.2501 63.2383L77.1152 92.3152C77.6895 93.0984 78.3307 93.848 79.0387 94.556C79.8911 95.4084 80.8037 96.1639 81.7629 96.8225L91.5602 61.8032C89.408 61.9211 87.2719 62.3995 85.2501 63.2383ZM94.4959 61.8657L84.3044 98.2939C85.1702 98.7095 86.0606 99.0564 86.9676 99.3346L97.3135 62.3544C96.3855 62.1213 95.4435 61.9584 94.4959 61.8657Z" fill="#FFFDFA"/>
    <path fill-rule="evenodd" clip-rule="evenodd" d="M108.58 94.9158C115.766 86.5456 115.395 73.9194 107.465 65.9894C99.1448 57.6695 85.6555 57.6695 77.3356 65.9894C69.0157 74.3093 69.0157 87.7986 77.3356 96.1185C85.2656 104.048 97.8918 104.42 106.262 97.2334L108.821 99.7928C107.948 101.62 108.269 103.875 109.782 105.389L121.37 116.977C123.29 118.897 126.403 118.897 128.323 116.977C130.243 115.057 130.243 111.944 128.323 110.024L116.735 98.4361C115.222 96.9224 112.966 96.6021 111.139 97.4751L108.58 94.9158ZM103.988 92.6421C110.388 86.2421 110.388 75.8658 103.988 69.4659C97.5883 63.0659 87.212 63.0659 80.8121 69.4659C74.4121 75.8658 74.4121 86.2421 80.8121 92.6421C87.212 99.042 97.5883 99.042 103.988 92.6421Z" fill="#8D8F9F"/>
</svg>
