<svg viewBox="0 0 21 21" fill="none" xmlns="http://www.w3.org/2000/svg">
    <path d="M4.76717 20.0734V6.52991H0.265591V20.0734H4.76717ZM2.51696 4.67967C4.08674 4.67967 5.06385 3.63968 5.06385 2.34005C5.0346 1.01112 4.0868 0 2.54675 0C1.00694 0 0 1.01114 0 2.34005C0 3.63974 0.976871 4.67967 2.48757 4.67967H2.51682H2.51696ZM7.25877 20.0734H11.7603V12.51C11.7603 12.1053 11.7896 11.7009 11.9085 11.4116C12.2339 10.6028 12.9746 9.76519 14.2181 9.76519C15.847 9.76519 16.4987 11.0072 16.4987 12.8278V20.0733H21V12.3076C21 8.14756 18.7792 6.21195 15.8174 6.21195C13.389 6.21195 12.3227 7.56935 11.7304 8.49387H11.7604V6.52963H7.25887C7.31795 7.80047 7.25887 20.0731 7.25887 20.0731L7.25877 20.0734Z"
          fill="#F77C64"/>
</svg>
