<svg width="37" height="51" viewBox="0 0 37 51" fill="none" xmlns="http://www.w3.org/2000/svg">
    <path d="M0 19.2306C0 17.5737 1.34315 16.2306 3 16.2306H34C35.6569 16.2306 37 17.5737 37 19.2306V31.8844C37 42.1017 28.7173 50.3844 18.5 50.3844C8.28273 50.3844 0 42.1017 0 31.8844V19.2306Z" fill="#1F2547"/>
    <path fill-rule="evenodd" clip-rule="evenodd" d="M3.55918 42.7991L10.0549 16.2331H15.7472L8.16694 47.2347C6.38623 46.0335 4.82587 44.5305 3.55918 42.7991ZM13.2716 49.6379C12.373 49.3736 11.5028 49.043 10.6666 48.6517L18.5934 16.2331H21.4395L13.2716 49.6379Z" fill="#1F2547"/>
    <path d="M27.0388 10.5385C27.0388 8.27392 26.1393 6.10213 24.538 4.50086C22.9367 2.89959 20.7649 2 18.5004 2C16.2358 2 14.064 2.89958 12.4628 4.50086C10.8615 6.10213 9.96191 8.27392 9.96191 10.5385" stroke="#1F2547" stroke-width="3" stroke-linecap="round"/>
    <path fill-rule="evenodd" clip-rule="evenodd" d="M20.9928 33.3165C20.8892 32.9019 21.0689 32.4755 21.3839 32.1868C22.2355 31.4063 22.7694 30.2848 22.7694 29.0386C22.7694 26.6808 20.858 24.7694 18.5002 24.7694C16.1424 24.7694 14.231 26.6808 14.231 29.0386C14.231 30.2849 14.7649 31.4063 15.6165 32.1868C15.9316 32.4755 16.1112 32.902 16.0076 33.3166L14.5416 39.1805C14.3838 39.8116 14.8612 40.423 15.5118 40.423H21.4887C22.1392 40.423 22.6166 39.8116 22.4588 39.1805L20.9928 33.3165Z" fill="#F77C64"/>
    <path d="M2.8177 20.8634L2.19087 24.087C1.95988 25.2748 3.64379 25.7753 4.09902 24.654L4.82858 22.8572C5.01193 22.4056 5.35386 22.0365 5.79015 21.8192L7.97982 20.7288C8.99752 20.222 8.51498 18.6803 7.38994 18.8441L4.49271 19.2661C3.65169 19.3885 2.97993 20.0292 2.8177 20.8634Z" fill="#FFFDFA"/>
</svg>
