<svg width="57" height="39" viewBox="0 0 57 39" fill="none" xmlns="http://www.w3.org/2000/svg">
    <path d="M13.4851 19.6759C17.4662 19.6759 20.7051 15.4509 20.7051 11.4691C20.7051 7.48792 17.4662 4.24902 13.4851 4.24902C9.50389 4.24902 6.26562 7.48792 6.26562 11.4691C6.26562 15.4509 9.50389 19.6759 13.4851 19.6759Z" fill="#F77C64"/>
    <path d="M23.3708 22.4168C23.4823 22.2876 23.5969 22.1629 23.7128 22.0368C22.3834 20.8639 20.7342 20.0456 18.9052 19.7505C17.5042 20.817 15.7575 21.4523 13.865 21.4523H13.105C11.2126 21.4523 9.46524 20.817 8.06493 19.7505C3.49159 20.4896 0 24.4537 0 29.2347C0 31.8606 6.03762 33.9911 13.485 33.9911C15.829 33.9911 18.0324 33.7796 19.9527 33.4084C19.8412 32.998 19.7766 32.5718 19.7766 32.1247C19.776 28.5628 21.0528 25.1155 23.3708 22.4168Z" fill="#F77C64"/>
    <path d="M36.4172 19.0863C37.4286 19.5632 38.5218 19.8349 39.6631 19.8349C40.8056 19.8349 41.8994 19.5626 42.9121 19.085C46.4328 17.4231 48.9453 13.2589 48.9453 9.28348C48.9453 4.16483 44.7817 0 39.6631 0C34.5444 0 30.3809 4.16547 30.3809 9.28348C30.3809 13.2602 32.8946 17.4257 36.4172 19.0863Z" fill="#2A2E42"/>
    <path d="M46.631 19.9297C45.781 20.5763 44.8291 21.0957 43.8075 21.4681C42.665 21.8848 41.4357 22.1179 40.1513 22.1179H39.174C37.8915 22.1179 36.6622 21.8854 35.5209 21.47C34.4981 21.0976 33.5443 20.5782 32.6931 19.9297C29.8 20.3971 27.2451 21.8696 25.3945 23.9774C23.4843 26.1522 22.3247 29.001 22.3247 32.1227C22.3247 32.3482 22.3621 32.5711 22.4298 32.7909C23.3729 35.8531 30.7272 38.2382 39.6623 38.2382C49.2372 38.2382 57 35.499 57 32.1227C57 25.9755 52.5103 20.8797 46.631 19.9297Z" fill="#2A2E42"/>
    <path d="M26.0845 32.8478C26.3817 30.9156 27.9572 26.4715 31.8811 24.1528" stroke="white" stroke-width="2.8" stroke-linecap="round"/>
    <path d="M3.96933 24.9419L3.14819 28.0064C2.8456 29.1357 4.4348 29.7313 4.94902 28.6814L5.77311 26.9988C5.98022 26.5759 6.33461 26.2432 6.7697 26.0632L8.95343 25.1597C9.96837 24.7398 9.60711 23.2214 8.51182 23.3036L5.69117 23.5152C4.87239 23.5766 4.18184 24.1488 3.96933 24.9419Z" fill="#FFFDFA"/>
</svg>
