<svg width="72" height="107" viewBox="0 0 72 107" fill="none" xmlns="http://www.w3.org/2000/svg">
    <rect x="12" width="47" height="47" rx="23.5" fill="#222342"/>
    <path d="M68.999 106.5C67 106.5 3.999 106.5 3.999 106.5C2 106.5 0 105 0 103C1.05678e-08 101 0.499534 71.9998 0.498997 68.9998C0.498461 65.9998 7.49949 49.4998 21.999 49.4998C23.4995 49.4998 26.999 52.9998 36.499 52.9998C45.499 52.9998 48.9995 49.5 51.499 49.4998C57.0011 49.4991 59.9294 52.2968 63.999 55.9998C68.4081 60.0116 71.9985 65.9998 71.999 68.9998C71.9994 71.5172 71.9991 93.0466 71.999 100.794L71.999 103.5C71.999 105 70.998 106.5 68.999 106.5Z" fill="#222342"/>
    <path d="M30 69.5V61H40.5V69.5H38L42.5 95L36.5 100.5H34.5L29 95L32.5 69.5H30Z" fill="#F57E66"/>
    <path d="M12.049 92.5C10.1506 89.9806 11.5486 86 9.04897 85C7.54861 85.5 7 87 7 87C7 87 5.42213 92.6428 7.04882 96C8.87694 99.7729 12.0984 102.71 15.549 101C17.1618 100.2 18.5004 99.5 18.5486 97.5C18.5664 96.7628 13.9761 95.0576 12.049 92.5Z" fill="white"/>
</svg>
