<svg width="19" height="19" viewBox="0 0 19 19" fill="none" xmlns="http://www.w3.org/2000/svg">
    <path d="M9.5 0C4.25379 0 0 4.25379 0 9.5C0 14.7462 4.25379 19 9.5 19C14.7462 19 19 14.7462 19 9.5C19 4.25379 14.7462 0 9.5 0ZM9.5 15.0134C9.03136 15.0134 8.65179 14.6338 8.65179 14.1652C8.65179 13.6965 9.03136 13.317 9.5 13.317C9.96864 13.317 10.3482 13.6965 10.3482 14.1652C10.3482 14.6338 9.96864 15.0134 9.5 15.0134ZM10.8338 10.3588C10.6418 10.433 10.4765 10.5633 10.3597 10.7327C10.2428 10.9022 10.1797 11.103 10.1786 11.3088V11.7902C10.1786 11.8835 10.1022 11.9598 10.0089 11.9598H8.99107C8.89777 11.9598 8.82143 11.8835 8.82143 11.7902V11.3343C8.82143 10.8444 8.9635 10.3609 9.24341 9.95803C9.51696 9.56361 9.89866 9.2625 10.3482 9.09074C11.0692 8.81295 11.5357 8.20859 11.5357 7.54911C11.5357 6.61395 10.6218 5.85268 9.5 5.85268C8.37824 5.85268 7.46429 6.61395 7.46429 7.54911V7.71027C7.46429 7.80357 7.38795 7.87991 7.29464 7.87991H6.27679C6.18348 7.87991 6.10714 7.80357 6.10714 7.71027V7.54911C6.10714 6.71574 6.47187 5.9375 7.13348 5.35859C7.76964 4.80089 8.60938 4.49554 9.5 4.49554C10.3906 4.49554 11.2304 4.80301 11.8665 5.35859C12.5281 5.9375 12.8929 6.71574 12.8929 7.54911C12.8929 8.77478 12.0849 9.87745 10.8338 10.3588Z" fill="#1F2547"/>
</svg>