<svg width="69" height="48" viewBox="0 0 69 48" fill="none" xmlns="http://www.w3.org/2000/svg">
    <path fill-rule="evenodd" clip-rule="evenodd" d="M4.53088 30.1317L35.0444 30.048L35.8204 33.1844L3.0431 33.2742C3.44297 32.1818 3.94158 31.1299 4.53088 30.1317ZM1.90635 38.9562C1.94814 37.9951 2.06311 37.0459 2.24702 36.1158L36.5224 36.0219L37.2245 38.8594L1.90635 38.9562Z" fill="#F77C64"/>
    <circle cx="46.999" cy="20.5" r="14.5" fill="#F77C64"/>
    <path d="M47.499 0C35.9021 0 26.499 9.40313 26.499 21C26.499 32.5969 35.9021 42 47.499 42C59.0959 42 68.499 32.5969 68.499 21C68.499 9.40313 59.0959 0 47.499 0ZM55.7725 27.4547L54.4318 29.2828C54.4027 29.3226 54.3659 29.3563 54.3237 29.3818C54.2815 29.4074 54.2347 29.4244 54.1859 29.4318C54.1371 29.4392 54.0873 29.4369 54.0395 29.425C53.9916 29.4131 53.9465 29.3919 53.9068 29.3625L46.1537 23.7094C46.1054 23.6747 46.0661 23.6289 46.0392 23.5759C46.0123 23.5229 45.9985 23.4641 45.999 23.4047V10.5C45.999 10.2937 46.1678 10.125 46.374 10.125H48.6287C48.835 10.125 49.0037 10.2937 49.0037 10.5V22.1016L55.6881 26.9344C55.8568 27.0516 55.8943 27.2859 55.7725 27.4547Z" fill="#1F2547"/>
    <path d="M32.7812 16.2256C36.4998 10 34.1137 13.3145 37.7497 9.31079" stroke="white" stroke-width="2.3" stroke-linecap="round"/>
</svg>
