<svg width="17" height="18" viewBox="0 0 17 18" fill="none" xmlns="http://www.w3.org/2000/svg">
    <path d="M16.2917 3.1875H13.4583V1.41667C13.4583 0.635287 12.823 0 12.0417 0H4.95833C4.17695 0 3.54167 0.635287 3.54167 1.41667V3.1875H0.708333C0.316536 3.1875 0 3.50404 0 3.89583V4.60417C0 4.70156 0.0796875 4.78125 0.177083 4.78125H1.51406L2.06081 16.3581C2.09622 17.1129 2.72044 17.7083 3.47526 17.7083H13.5247C14.2818 17.7083 14.9038 17.1151 14.9392 16.3581L15.4859 4.78125H16.8229C16.9203 4.78125 17 4.70156 17 4.60417V3.89583C17 3.50404 16.6835 3.1875 16.2917 3.1875ZM11.8646 3.1875H5.13542V1.59375H11.8646V3.1875Z" fill="#606274"/>
</svg>
