<svg  viewBox="0 0 23 19" fill="none" xmlns="http://www.w3.org/2000/svg">
    <path d="M23 2.21958C22.1542 2.58444 21.2337 2.84703 20.2857 2.9493C21.27 2.36451 22.0071 1.44065 22.3587 0.351051C21.4351 0.900522 20.4232 1.28582 19.368 1.48986C18.927 1.01838 18.3936 0.642773 17.801 0.386452C17.2085 0.130131 16.5695 -0.00141462 15.9239 1.14721e-05C13.3119 1.14721e-05 11.2112 2.11731 11.2112 4.71555C11.2112 5.08041 11.2554 5.44527 11.3272 5.79631C7.41606 5.59177 3.92777 3.72324 1.6087 0.862408C1.18614 1.58415 0.964705 2.40595 0.967432 3.24229C0.967432 4.87863 1.79942 6.32149 3.06814 7.17006C2.32047 7.14062 1.5903 6.93511 0.937027 6.57026V6.6283C0.937027 8.91973 2.55678 10.8187 4.71554 11.2554C4.31021 11.3607 3.89324 11.4145 3.47446 11.4157C3.16765 11.4157 2.87742 11.3853 2.58442 11.3438C3.18147 13.2124 4.92008 14.5695 6.99039 14.6138C5.37063 15.8825 3.34179 16.6288 1.13881 16.6288C0.743541 16.6288 0.37868 16.615 0 16.5707C2.08965 17.9113 4.56904 18.6853 7.23915 18.6853C15.9073 18.6853 20.6505 11.5042 20.6505 5.27113C20.6505 5.06659 20.6505 4.86205 20.6367 4.6575C21.5544 3.98583 22.3587 3.15384 23 2.21958Z" fill="#F77C64"/>
</svg>
